<?xml version="1.0" encoding="UTF-8" standalone="no"?>
<!-- Created with Inkscape (http://www.inkscape.org/) -->

<svg
   xmlns:dc="http://purl.org/dc/elements/1.1/"
   xmlns:cc="http://creativecommons.org/ns#"
   xmlns:rdf="http://www.w3.org/1999/02/22-rdf-syntax-ns#"
   xmlns:svg="http://www.w3.org/2000/svg"
   xmlns="http://www.w3.org/2000/svg"
   xmlns:inkscape="http://www.inkscape.org/namespaces/inkscape"
   version="1.1"
   width="113.8625"
   height="161.9375"
   id="svg2"
   xml:space="preserve"><metadata
     id="metadata8"><rdf:RDF><cc:Work
         rdf:about=""><dc:format>image/svg+xml</dc:format><dc:type
           rdf:resource="http://purl.org/dc/dcmitype/StillImage" /></cc:Work></rdf:RDF></metadata><defs
     id="defs6" /><g
     transform="matrix(1.25,0,0,-1.25,0,161.9375)"
     id="g10"><g
       transform="scale(0.1,0.1)"
       id="g12"><path
         d="m 667.617,836.02 c -26.09,0 -47.316,21.226 -47.316,47.316 0,26.094 21.226,47.316 47.316,47.316 26.094,0 47.321,-21.222 47.321,-47.316 0,-26.09 -21.227,-47.316 -47.321,-47.316 z m 0,156.878 c -60.41,0 -109.558,-49.148 -109.558,-109.562 0,-60.41 49.148,-109.559 109.558,-109.559 60.414,0 109.563,49.149 109.563,109.559 0,60.414 -49.149,109.562 -109.563,109.562"
         inkscape:connector-curvature="0"
         id="path14"
         style="fill:#F55748;fill-opacity:1;fill-rule:nonzero;stroke:none" /><path
         d="m 195.973,883.336 c 0,26.094 21.226,47.316 47.316,47.316 26.094,0 47.316,-21.222 47.316,-47.316 0,-26.09 -21.222,-47.316 -47.316,-47.316 -26.09,0 -47.316,21.226 -47.316,47.316 z m 156.879,0 c 0,60.414 -49.149,109.562 -109.563,109.562 -60.41,0 -109.559,-49.148 -109.559,-109.562 0,-60.41 49.149,-109.559 109.559,-109.559 60.414,0 109.563,49.149 109.563,109.559"
         inkscape:connector-curvature="0"
         id="path16"
         style="fill:#F55748;fill-opacity:1;fill-rule:nonzero;stroke:none" /><path
         d="m 667.617,1126.63 c -91,0 -170.441,-50.26 -212.164,-124.44 -41.719,74.18 -121.164,124.44 -212.164,124.44 -71.832,0 -136.473,-31.32 -181.0468,-80.99 l 0,138.51 c 67.3788,-33.6 145.8008,-9.35 222.1918,14.28 55.371,17.13 112.625,34.85 171.019,34.85 58.399,0 115.652,-17.71 171.02,-34.84 76.394,-23.64 154.808,-47.91 222.195,-14.28 l 0,-138.52 c -44.574,49.67 -109.215,80.99 -181.051,80.99 z m 0,-424.341 c -99.824,0 -181.043,81.219 -181.043,181.047 0,99.828 81.219,181.044 181.043,181.044 99.832,0 181.051,-81.216 181.051,-181.044 0,-99.828 -81.219,-181.047 -181.051,-181.047 z m 89.156,-244.086 c 0,-40.262 -15.675,-78.113 -44.148,-106.582 l -139.633,-139.633 0,145.875 c 25.059,78.055 79.563,145.157 154.246,190.004 19.172,-25.797 29.535,-56.933 29.535,-89.664 z m -602.636,0 c 0,31.875 9.863,62.219 28.086,87.613 C 255.164,500.98 308.398,434.73 333.078,357.871 l 0,-141.043 -134.797,134.793 c -28.468,28.469 -44.144,66.32 -44.144,106.582 z m 301.316,150.59 c -29.484,29.484 -65.476,48.465 -103.348,57.043 43.493,21.852 79.555,56.344 103.348,98.648 23.793,-42.304 59.856,-76.796 103.352,-98.648 -37.871,-8.578 -73.864,-27.559 -103.352,-57.043 z M 512.277,372.5 c -0.371,-1.141 -0.683,-2.301 -0.922,-3.492 -0.109,-0.547 -0.167,-1.09 -0.246,-1.637 -0.066,-0.461 -0.156,-0.91 -0.203,-1.375 -0.113,-1.141 -0.168,-2.277 -0.156,-3.406 l 0,-212.852 -55.297,-55.2888 -60.133,60.1288 0,208.02 c 0.012,1.129 -0.043,2.265 -0.156,3.406 -0.047,0.465 -0.137,0.914 -0.203,1.375 -0.078,0.547 -0.141,1.09 -0.25,1.637 -0.234,1.191 -0.551,2.351 -0.918,3.492 -26.918,87.449 -84.598,163.32 -163.789,216.543 22.543,12.945 48.16,19.879 74.855,19.879 40.262,0 78.114,-15.68 106.582,-44.149 l 44.012,-44.011 44.016,44.011 c 28.469,28.469 66.316,44.149 106.578,44.149 25.664,0 50.336,-6.399 72.234,-18.391 C 597.949,537.246 539.445,460.766 512.277,372.5 z M 62.2422,883.336 c 0,99.828 81.2188,181.044 181.0468,181.044 99.828,0 181.043,-81.216 181.043,-181.044 0,-99.828 -81.215,-181.047 -181.043,-181.047 -99.828,0 -181.0468,81.219 -181.0468,181.047 z M 890.418,1278 c -12.313,4.47 -26.094,0.77 -34.492,-9.27 -48.27,-57.66 -108.586,-42.54 -211.055,-10.83 -57.004,17.63 -121.609,37.62 -189.418,37.62 -67.805,0 -132.41,-19.99 -189.414,-37.63 C 163.578,1226.2 103.258,1211.06 54.9844,1268.73 46.5781,1278.77 32.793,1282.47 20.4922,1278 8.19141,1273.53 0,1261.84 0,1248.75 L 0,883.336 C 0,763.766 86.7305,664.137 200.574,643.879 184,634.559 168.379,622.902 154.27,608.793 71.0977,525.625 71.0977,390.777 154.27,307.609 l 245.367,-245.3707 -187.469,0 0,-62.2383 486.574,0 0,62.2383 -187.469,0 245.364,245.3707 c 83.172,83.168 83.172,218.016 0,301.184 -14.106,14.109 -29.727,25.766 -46.305,35.086 113.844,20.258 200.578,119.887 200.578,239.457 l 0,365.414 c 0,13.09 -8.191,24.78 -20.492,29.25"
         inkscape:connector-curvature="0"
         id="path18"
         style="fill:#F55748;fill-opacity:1;fill-rule:nonzero;stroke:none" /></g></g></svg>
